<svg xmlns="http://www.w3.org/2000/svg" width="74" height="74" viewBox="0 0 74 74">
  <g id="Group_297" data-name="Group 297" transform="translate(-773 -2109)">
    <path id="Path_11065" data-name="Path 11065" d="M38,1A37,37,0,1,0,75,38,37.041,37.041,0,0,0,38,1Zm0,71.613A34.613,34.613,0,1,1,72.613,38,34.653,34.653,0,0,1,38,72.613Z" transform="translate(772 2108)" fill="#fe6309"/>
    <path id="Path_11066" data-name="Path 11066" d="M9.548,15.516a5.968,5.968,0,1,0,5.968-5.968,5.84,5.84,0,0,0-.872.088L4.043,0H0V4.043l9.637,10.6a5.84,5.84,0,0,0-.088.872Zm9.548,0a3.581,3.581,0,1,1-3.581-3.581A3.585,3.585,0,0,1,19.1,15.516ZM2.387,3.119V2.387h.732l9.03,8.209A6,6,0,0,0,10.6,12.149Z" transform="translate(810.052 2124.703) rotate(45)" fill="#fe6309"/>
    <path id="Path_11067" data-name="Path 11067" d="M37.226,5A32.226,32.226,0,1,0,69.452,37.226,32.262,32.262,0,0,0,37.226,5Zm0,62.065A29.871,29.871,0,0,1,7.417,38.419h4.744V36.032H7.417a29.681,29.681,0,0,1,1.806-9.114l4.389,1.819.914-2.206-4.38-1.815A29.938,29.938,0,0,1,15.312,17l3.346,3.346,1.688-1.688L17,15.312a29.918,29.918,0,0,1,7.716-5.167l1.815,4.38,2.206-.914L26.918,9.223a29.681,29.681,0,0,1,9.114-1.806v4.744h2.387V7.417a29.681,29.681,0,0,1,9.114,1.806l-1.819,4.389,2.206.914,1.815-4.38a29.938,29.938,0,0,1,7.716,5.167l-3.346,3.346,1.688,1.688L59.139,17a29.917,29.917,0,0,1,5.167,7.716l-4.38,1.815.914,2.206,4.389-1.819a29.645,29.645,0,0,1,1.806,9.114H62.29v2.387h4.744A29.871,29.871,0,0,1,37.226,67.065Z" transform="translate(772.774 2108.774)" fill="#fe6309"/>
    <path id="Path_11068" data-name="Path 11068" d="M36.015,45.774H34.459V43.387h2.387V41H24.911v2.387H27.3v2.607a3.563,3.563,0,0,0-1.067.606l-5.25-5.25-1.688,1.688,5.682,5.682a3.59,3.59,0,0,0-.064.635v2.387a5.975,5.975,0,0,0,5.968,5.968h8.832a5.97,5.97,0,0,0,5.453-3.544l3.618-8.139v-3.5l-9.5,5.429Zm-3.942-2.387v2.387H29.685V43.387ZM42.984,53.2a3.584,3.584,0,0,1-3.273,2.126H30.879A3.585,3.585,0,0,1,27.3,51.742V49.355a1.194,1.194,0,0,1,1.194-1.194h6.8l3.895,2.6,6.543-3.739Z" transform="translate(775.541 2115.742)" fill="#fe6309"/>
    <path id="Path_11069" data-name="Path 11069" d="M50.581,37a3.581,3.581,0,1,0,3.581,3.581A3.585,3.585,0,0,0,50.581,37Zm0,4.774a1.194,1.194,0,1,1,1.194-1.194A1.194,1.194,0,0,1,50.581,41.774Z" transform="translate(780.903 2114.968)" fill="#fe6309"/>
    <path id="Path_11070" data-name="Path 11070" d="M14.581,37a3.581,3.581,0,1,0,3.581,3.581A3.585,3.585,0,0,0,14.581,37Zm0,4.774a1.194,1.194,0,1,1,1.194-1.194A1.194,1.194,0,0,1,14.581,41.774Z" transform="translate(773.935 2114.968)" fill="#fe6309"/>
  </g>
</svg>
