<svg xmlns="http://www.w3.org/2000/svg" width="74" height="74" viewBox="0 0 74 74">
  <g id="Group_299" data-name="Group 299" transform="translate(-773 -2620)">
    <path id="Path_11081" data-name="Path 11081" d="M38,1A37,37,0,1,0,75,38,37.041,37.041,0,0,0,38,1Zm0,71.613A34.613,34.613,0,1,1,72.613,38,34.653,34.653,0,0,1,38,72.613Z" transform="translate(772 2619)" fill="#fe6309"/>
    <g id="Group_269" data-name="Group 269" transform="translate(808.779 2626.098)">
      <path id="Path_11072" data-name="Path 11072" d="M241,60.036h2.443v5.815H241Z" transform="translate(-241 -60.036)" fill="#fe6309"/>
    </g>
    <g id="Group_284" data-name="Group 284" transform="translate(808.76 2655.722)">
      <path id="Path_11072-2" data-name="Path 11072" d="M241,60.036h2.443V79.4H241Z" transform="translate(-241 -60.036)" fill="#fe6309"/>
    </g>
    <g id="Group_273" data-name="Group 273" transform="translate(808.779 2682.088)">
      <path id="Path_11076" data-name="Path 11076" d="M241,411.932h2.443v5.815H241Z" transform="translate(-241 -411.932)" fill="#fe6309"/>
    </g>
    <g id="Group_280" data-name="Group 280" transform="translate(779.098 2655.779)">
      <g id="Group_278" data-name="Group 278" transform="translate(0 2.443) rotate(-90)">
        <path id="Path_11072-3" data-name="Path 11072" d="M0,0H2.443V5.815H0Z" fill="#fe6309"/>
      </g>
      <g id="Group_279" data-name="Group 279" transform="translate(55.99 2.443) rotate(-90)">
        <path id="Path_11076-2" data-name="Path 11076" d="M0,0H2.443V5.815H0Z" fill="#fe6309"/>
      </g>
    </g>
    <g id="Group_278-2" data-name="Group 278" transform="translate(788.989 2679.738) rotate(-135)">
      <path id="Path_11072-4" data-name="Path 11072" d="M0,0H2.443V5.815H0Z" transform="translate(0 0)" fill="#fe6309"/>
    </g>
    <g id="Group_279-2" data-name="Group 279" transform="translate(828.626 2640.101) rotate(-135)">
      <path id="Path_11076-3" data-name="Path 11076" d="M0,0H2.443V5.815H0Z" transform="translate(0 0)" fill="#fe6309"/>
    </g>
    <g id="Group_285" data-name="Group 285" transform="translate(810.479 2657.583) rotate(-135)">
      <path id="Path_11076-4" data-name="Path 11076" d="M0,0H2.443V12.425H0Z" transform="translate(0 0)" fill="#fe6309"/>
    </g>
    <g id="Group_282" data-name="Group 282" transform="translate(831.117 2679.844) rotate(-135)">
      <g id="Group_278-3" data-name="Group 278" transform="translate(0 2.443) rotate(-90)">
        <path id="Path_11072-5" data-name="Path 11072" d="M0,0H2.443V5.815H0Z" fill="#fe6309"/>
      </g>
      <g id="Group_279-3" data-name="Group 279" transform="translate(56.357 2.443) rotate(-90)">
        <path id="Path_11076-5" data-name="Path 11076" d="M0,0H2.443V5.815H0Z" transform="translate(0 0)" fill="#fe6309"/>
      </g>
    </g>
    <path id="Path_11082" data-name="Path 11082" d="M2.24,1A1.24,1.24,0,1,0,3.48,2.24,1.241,1.241,0,0,0,2.24,1Zm0,2.4A1.16,1.16,0,1,1,3.4,2.24,1.161,1.161,0,0,1,2.24,3.4Z" transform="translate(807.76 2654.76)" fill="#fe6309"/>
  </g>
</svg>
