<svg xmlns="http://www.w3.org/2000/svg" width="74" height="74" viewBox="0 0 74 74">
  <g id="Group_298" data-name="Group 298" transform="translate(-1276 -2620)">
    <path id="Path_11083" data-name="Path 11083" d="M38,1A37,37,0,1,0,75,38,37.041,37.041,0,0,0,38,1Zm0,71.613A34.613,34.613,0,1,1,72.613,38,34.653,34.653,0,0,1,38,72.613Z" transform="translate(1275 2619)" fill="#fe6309"/>
    <g id="Group_293" data-name="Group 293" transform="translate(1311.785 2626.068)">
      <path id="Path_11072" data-name="Path 11072" d="M241,60.036h2.431v5.786H241Z" transform="translate(-241 -60.036)" fill="#fe6309"/>
    </g>
    <g id="Group_288" data-name="Group 288" transform="translate(1311.766 2638.975)">
      <path id="Path_11072-2" data-name="Path 11072" d="M241,60.036h2.431V79.307H241Z" transform="translate(-241 -60.036)" fill="#fe6309"/>
    </g>
    <g id="Group_289" data-name="Group 289" transform="translate(1311.785 2682.146)">
      <path id="Path_11076" data-name="Path 11076" d="M241,411.932h2.431v5.786H241Z" transform="translate(-241 -411.932)" fill="#fe6309"/>
    </g>
    <g id="Group_287" data-name="Group 287" transform="translate(1282.068 2655.785)">
      <g id="Group_278" data-name="Group 278" transform="translate(0 2.431) rotate(-90)">
        <path id="Path_11072-3" data-name="Path 11072" d="M0,0H2.431V5.786H0Z" fill="#fe6309"/>
      </g>
      <g id="Group_279" data-name="Group 279" transform="translate(56.079 2.431) rotate(-90)">
        <path id="Path_11076-2" data-name="Path 11076" d="M0,0H2.431V5.786H0Z" fill="#fe6309"/>
      </g>
    </g>
    <g id="Group_292" data-name="Group 292" transform="translate(1291.987 2679.732) rotate(-135)">
      <path id="Path_11072-4" data-name="Path 11072" d="M0,0H2.431V5.786H0Z" fill="#fe6309"/>
    </g>
    <g id="Group_291" data-name="Group 291" transform="translate(1331.641 2640.078) rotate(-135)">
      <path id="Path_11076-3" data-name="Path 11076" d="M0,0H2.431V5.786H0Z" fill="#fe6309"/>
    </g>
    <g id="Group_290" data-name="Group 290" transform="matrix(-0.485, -0.875, 0.875, -0.485, 1314.191, 2658.213)">
      <path id="Path_11076-4" data-name="Path 11076" d="M0,0H2.431V12.316H0Z" fill="#fe6309"/>
    </g>
    <g id="Group_286" data-name="Group 286" transform="translate(1334.013 2679.732) rotate(-135)">
      <g id="Group_278-2" data-name="Group 278" transform="translate(0 2.431) rotate(-90)">
        <path id="Path_11072-5" data-name="Path 11072" d="M0,0H2.431V5.786H0Z" fill="#fe6309"/>
      </g>
      <g id="Group_279-2" data-name="Group 279" transform="translate(56.079 2.431) rotate(-90)">
        <path id="Path_11076-5" data-name="Path 11076" d="M0,0H2.431V5.786H0Z" fill="#fe6309"/>
      </g>
    </g>
    <path id="Path_11084" data-name="Path 11084" d="M2.234,1A1.234,1.234,0,1,0,3.468,2.234,1.235,1.235,0,0,0,2.234,1Zm0,2.388A1.154,1.154,0,1,1,3.388,2.234,1.156,1.156,0,0,1,2.234,3.388Z" transform="translate(1310.766 2654.766)" fill="#fe6309"/>
  </g>
</svg>
