<svg xmlns="http://www.w3.org/2000/svg" width="40.002" height="40.001" viewBox="0 0 40.002 40.001">
  <path id="Exclusion_1" data-name="Exclusion 1" d="M-15421-2056a19.878,19.878,0,0,1-14.145-5.859A19.87,19.87,0,0,1-15441-2076a19.869,19.869,0,0,1,5.857-14.144A19.88,19.88,0,0,1-15421-2096a19.869,19.869,0,0,1,14.143,5.857A19.87,19.87,0,0,1-15401-2076a19.869,19.869,0,0,1-5.857,14.142A19.873,19.873,0,0,1-15421-2056Zm-8.75-15v2.5H-15411v-2.5Zm0-6.249v2.5H-15411v-2.5Zm0-6.249v2.5H-15411v-2.5Z" transform="translate(15441.002 2096)" fill="#292a2c"/>
</svg>
