<svg id="instagram" xmlns="http://www.w3.org/2000/svg" width="42.417" height="42.418" viewBox="0 0 42.417 42.418">
  <path id="Path_11057" data-name="Path 11057" d="M16.729,5.838A10.883,10.883,0,1,0,27.613,16.721,10.882,10.882,0,0,0,16.729,5.838Zm0,17.948a7.064,7.064,0,1,1,7.064-7.064A7.062,7.062,0,0,1,16.729,23.786Z" transform="translate(4.486 4.479)" fill="#fe6309"/>
  <path id="Path_11058" data-name="Path 11058" d="M29.954.134c-3.9-.182-13.568-.173-17.474,0-3.432.161-6.46.99-8.9,3.43C-.5,7.643.021,13.14.021,21.2c0,8.25-.46,13.619,3.558,17.637,4.1,4.093,9.671,3.558,17.637,3.558,8.172,0,10.993.005,13.883-1.113,3.929-1.525,6.895-5.037,7.184-11.345.184-3.9.173-13.568,0-17.474C41.933,5.017,37.937.5,29.954.134Zm6.177,36c-2.674,2.674-6.384,2.435-14.966,2.435-8.837,0-12.38.131-14.966-2.462-2.978-2.964-2.439-7.723-2.439-14.94,0-9.765-1-16.8,8.8-17.3,2.252-.08,2.914-.106,8.582-.106l.08.053c9.418,0,16.808-.986,17.251,8.812.1,2.236.124,2.907.124,8.566,0,8.734.164,12.3-2.464,14.94Z" transform="translate(0 -0.001)" fill="#fe6309"/>
  <ellipse id="Ellipse_20" data-name="Ellipse 20" cx="2.543" cy="2.543" rx="2.543" ry="2.543" transform="translate(29.987 7.344)" fill="#fe6309"/>
</svg>
