<svg id="Монтажная_область_2" data-name="Монтажная область 2" xmlns="http://www.w3.org/2000/svg" width="126.046" height="27.706" viewBox="0 0 126.046 27.706">
  <path id="Path_416" data-name="Path 416" d="M197.18,0l10.928,27.706h6.48L203.676,0Z" transform="translate(-137.273)" fill="#292a2c"/>
  <path id="Path_417" data-name="Path 417" d="M246.717,14.874,240.869,0h-6.5l10.892,27.694h2.914L259.064,0h-6.5Z" transform="translate(-163.164)" fill="#292a2c"/>
  <path id="Path_418" data-name="Path 418" d="M344.489,21.077h-18v-3.9H341.94l-4.305-6.626H326.512V6.617h8.525L330.7,0H319.98V27.694h28.829Z" transform="translate(-222.764)" fill="#292a2c"/>
  <path id="Path_419" data-name="Path 419" d="M152.873,14.673C154.11,12.7,154.143,9.26,154,8.3a9.836,9.836,0,0,0-2.926-5.932A8.217,8.217,0,0,0,145.694,0H134.65V27.7h6.487V19.532H144.4L147.7,27.7h6.447s-2.616-6.614-3.892-9.941A10.187,10.187,0,0,0,152.873,14.673Zm-5.39-3.162a3.239,3.239,0,0,1-2.51,1.57h-3.837V6.346h3.95a3.094,3.094,0,0,1,2.555,1.888A3.671,3.671,0,0,1,147.483,11.511Z" transform="translate(-93.741)" fill="#292a2c"/>
  <path id="Path_420" data-name="Path 420" d="M34.523,3.328A11.514,11.514,0,0,0,26.691,0H0L4.861,7.477H26.672A5.488,5.488,0,0,1,30.7,9.438a6.738,6.738,0,0,1-.48,9.327,5.356,5.356,0,0,1-3.6,1.452H13.137L18.032,27.7h8.1a12.373,12.373,0,0,0,9.485-4.512c1.941-2.194,3.205-6.445,3.205-9.254A14.432,14.432,0,0,0,34.523,3.328Zm-25.1.707H4.737V3.1H9.418Zm6.757,0H11.1V3.1h5.068Zm6.924,0H17.983V3.1H23.09Zm6.684.8a7.454,7.454,0,0,0-3.227-.8h-1.7V3.1h1.723a8.349,8.349,0,0,1,3.555.837ZM23.09,24.592H17.983v-.933H23.09Zm3.342,0h-1.58v-.933h1.276a8.426,8.426,0,0,0,3.646-.8l.362.9A8.531,8.531,0,0,1,26.432,24.592Zm7.225-3.7a11.9,11.9,0,0,1-1.969,1.93l-.468-.831h0a9.543,9.543,0,0,0,3.014-3.843l.817.411a9.6,9.6,0,0,1-1.4,2.334ZM36,13.692a13.074,13.074,0,0,1-.343,3.031l-.842-.3c.024-.1.049-.194.07-.29a11.13,11.13,0,0,0-.085-4.882l.863-.3A11.4,11.4,0,0,1,36,13.692Zm-1.765-4.14A9.069,9.069,0,0,0,33.083,7.6,10.191,10.191,0,0,0,31.2,5.716l.513-.822c.079.061.158.115.237.178a10.911,10.911,0,0,1,3.081,4.034Z" fill="#292a2c"/>
  <path id="Path_421" data-name="Path 421" d="M46.707,33.169l-2.9-3.869H42.83v8.976h2.105V34.443l1.793,2.379,1.78-2.417v3.872h2.115V29.3h-.978Z" transform="translate(-29.817 -19.97)" fill="#292a2c"/>
  <path id="Path_422" data-name="Path 422" d="M77.245,35.032A3.394,3.394,0,0,0,78.3,31.354,2.843,2.843,0,0,0,75.741,29.3H72.18v8.976h2.093V35.6h1.1l1,2.678h2.1Zm-1.17-1.71a1.14,1.14,0,0,1-.708.185H74.252V31.341h1.3a.917.917,0,0,1,.832.637A1.123,1.123,0,0,1,76.075,33.322Z" transform="translate(-50.25 -19.97)" fill="#292a2c"/>
</svg>
