<svg xmlns="http://www.w3.org/2000/svg" width="40.489" height="40.489" viewBox="0 0 40.489 40.489">
  <path id="Path_11051" data-name="Path 11051" d="M34.557,5.927A20.244,20.244,0,1,0,40.488,20.24,20.244,20.244,0,0,0,34.557,5.927ZM30.659,28.2l0,0V28.2l-1.026,1.019a5.4,5.4,0,0,1-5.095,1.458,17.938,17.938,0,0,1-5.21-2.335,24.07,24.07,0,0,1-4.11-3.313,24.254,24.254,0,0,1-3.07-3.725,18.893,18.893,0,0,1-2.308-4.67,5.4,5.4,0,0,1,1.35-5.513l1.2-1.2a.857.857,0,0,1,1.212,0l0,0L17.4,13.708a.857.857,0,0,1,0,1.212l0,0-2.227,2.227a1.815,1.815,0,0,0-.189,2.362,26.043,26.043,0,0,0,2.666,3.111,25.884,25.884,0,0,0,3.509,2.949,1.829,1.829,0,0,0,2.335-.2l2.153-2.186a.857.857,0,0,1,1.212,0l0,0,3.8,3.806A.857.857,0,0,1,30.659,28.2Z" transform="translate(0 0)" fill="#292a2c"/>
</svg>
