<svg xmlns="http://www.w3.org/2000/svg" width="50.131" height="42.414" viewBox="0 0 50.131 42.414">
  <path id="telegram_1_" data-name="telegram (1)" d="M49.357,1.161A3.255,3.255,0,0,0,46.774,0a5.066,5.066,0,0,0-1.8.359L2.536,16.557C.285,17.417-.019,18.706,0,19.4s.4,1.963,2.693,2.694l.041.012,8.8,2.519L16.3,38.236a4.109,4.109,0,0,0,3.8,3.008,4.5,4.5,0,0,0,3.043-1.3l5.444-5.013,7.9,6.359,0,0,.075.06.021.016a4.559,4.559,0,0,0,2.772,1.041h0a3.891,3.891,0,0,0,3.709-3.448L50.016,4.633a4.1,4.1,0,0,0-.659-3.472ZM14.481,24.145,31.463,15.47,20.889,26.705a1.466,1.466,0,0,0-.356.654l-2.039,8.259Zm6.671,13.642c-.07.065-.141.122-.212.176L22.832,30.3l3.441,2.771ZM47.137,4.05,40.184,38.383c-.067.329-.281,1.093-.83,1.093a1.712,1.712,0,0,1-.962-.417l-8.948-7.2,0,0-5.324-4.287L39.407,11.315A1.469,1.469,0,0,0,37.669,9L12.519,21.849,3.6,19.3,46.019,3.1a2.154,2.154,0,0,1,.755-.166c.09,0,.25.011.309.084a1.4,1.4,0,0,1,.054,1.029Zm0,0" transform="translate(0)" fill="#fe6309"/>
</svg>
