<svg id="viber_1_" data-name="viber (1)" xmlns="http://www.w3.org/2000/svg" width="38.77" height="42.413" viewBox="0 0 38.77 42.413">
  <g id="Group_242" data-name="Group 242">
    <path id="Path_11059" data-name="Path 11059" d="M25.679,0H17.6A15.361,15.361,0,0,0,2.255,15.342V22.62a15.372,15.372,0,0,0,9.692,14.268v4.718a.807.807,0,0,0,1.35.6l4.684-4.242h7.7A15.361,15.361,0,0,0,41.025,22.62V15.342A15.361,15.361,0,0,0,25.679,0Zm13.73,22.62a13.744,13.744,0,0,1-13.73,13.727h-8.01a.806.806,0,0,0-.542.209l-3.564,3.228V36.328a.805.805,0,0,0-.539-.761A13.756,13.756,0,0,1,3.87,22.62V15.342A13.744,13.744,0,0,1,17.6,1.615h8.079a13.744,13.744,0,0,1,13.73,13.727Z" transform="translate(-2.255)" fill="#fe6309"/>
    <path id="Path_11060" data-name="Path 11060" d="M34.125,26.552l-4.964-3.224a2.417,2.417,0,0,0-3.352.711l-.233.359a8.048,8.048,0,0,1-5.936-5.723l.587-.51h0a2.427,2.427,0,0,0,.237-3.419l-3.883-4.467a.809.809,0,0,0-1.14-.08L13,12.317c-2.139,1.859-1.14,4.61-.811,5.513a.8.8,0,0,0,.053.117,36.907,36.907,0,0,0,5.38,7.1c3.283,3.345,9.211,6.433,9.393,6.523A4.042,4.042,0,0,0,32.6,30.38l1.759-2.709A.81.81,0,0,0,34.125,26.552ZM31.249,29.5a2.45,2.45,0,0,1-3.419.674c-.059-.031-5.948-3.1-9.052-6.26a36.055,36.055,0,0,1-5.09-6.7c-.64-1.794-.527-2.9.375-3.68l1.829-1.59,3.354,3.858a.8.8,0,0,1-.078,1.14l-.991.861a.807.807,0,0,0-.242.847c1.69,5.491,4.975,6.569,7.374,7.357l.35.115a.8.8,0,0,0,.933-.326l.573-.882a.8.8,0,0,1,1.117-.235l4.287,2.784Z" transform="translate(-4.066 -1.923)" fill="#fe6309"/>
    <path id="Path_11061" data-name="Path 11061" d="M28.293,16.239a.808.808,0,1,0-.443,1.553,3.654,3.654,0,0,1,2.5,2.507.808.808,0,0,0,.777.589.827.827,0,0,0,.22-.03.808.808,0,0,0,.558-1A5.281,5.281,0,0,0,28.293,16.239Z" transform="translate(-7.064 -3.117)" fill="#fe6309"/>
    <path id="Path_11062" data-name="Path 11062" d="M34.417,20.292a.827.827,0,0,0,.22-.03.808.808,0,0,0,.558-1,10.257,10.257,0,0,0-7.018-7.034.808.808,0,0,0-.442,1.554A8.63,8.63,0,0,1,33.64,19.7.808.808,0,0,0,34.417,20.292Z" transform="translate(-7.042 -2.346)" fill="#fe6309"/>
    <path id="Path_11063" data-name="Path 11063" d="M27.746,7.574A.808.808,0,0,0,27.3,9.128,14.622,14.622,0,0,1,37.309,19.157a.808.808,0,0,0,.777.589.827.827,0,0,0,.22-.03.808.808,0,0,0,.558-1A16.249,16.249,0,0,0,27.746,7.574Z" transform="translate(-6.959 -1.45)" fill="#fe6309"/>
  </g>
</svg>
